<svg id="eAOmPckKSv51" xmlns="http://www.w3.org/2000/svg" xmlns:xlink="http://www.w3.org/1999/xlink" viewBox="64 39 100 111" shape-rendering="geometricPrecision" text-rendering="geometricPrecision"><polygon points="0,-17.253508 16.409062,-5.331627 10.141358,13.958382 -10.141358,13.958382 -16.409062,-5.331627 0,-17.253508" transform="matrix(-.999992-.004074 0.004074-.999992 119.038734 54.215536)" fill="rgba(210,219,237,0)" stroke="#000"/><polygon points="0,-16.347351 14.157221,-8.173675 14.157221,8.173676 0,16.347352 -14.157221,8.173676 -14.157221,-8.173675 0,-16.347351" transform="matrix(.999994-.003329 0.003329 0.999994 119.095602 101.491287)" fill="rgba(210,219,237,0)" stroke="#000"/><polygon points="0,-10.683464 9.252151,5.341732 -9.252151,5.341732 0,-10.683464" transform="matrix(1 0.000762-.000762 1 93.426388 144.607013)" fill="rgba(210,219,237,0)" stroke="#000"/><polygon points="0,-10.404843 9.010858,5.202421 -9.010858,5.202421 0,-10.404843" transform="matrix(.999997-.002453 0.002453 0.999997 144.41372 144.775492)" fill="rgba(210,219,237,0)" stroke="#000"/><path d="M118.815856,71.413176v14.001675" fill="none" stroke="#000" stroke-width="0.6"/><path d="M132.576123,93.864138l12.794634-12.794634" fill="none" stroke="#000" stroke-width="0.6"/><path d="M145.098694,81.377211v-10.796303" transform="translate(0 0.000001)" fill="none" stroke="#000" stroke-width="0.6"/><path d="M144.658028,70.801241l7.491312-7.491312" fill="none" stroke="#000" stroke-width="0.6"/><path d="M144.658028,71.021574v-8.15231" fill="none" stroke="#000" stroke-width="0.6"/><path d="M144.437696,70.801241l-6.389649-6.389649" transform="translate(0 0.000001)" fill="none" stroke="#000" stroke-width="0.6"/><path d="M104.777808,109.80013L92.879842,121.698096" fill="none" stroke="#000" stroke-width="0.6"/><path d="M132.982435,109.79299l11.220647,11.220647" transform="translate(.000001 0.000001)" fill="none" stroke="#000" stroke-width="0.6"/><path d="M144.203082,134.656924v-13.515779" transform="translate(0 0.000001)" fill="none" stroke="#000" stroke-width="0.6"/><path d="M93.455155,134.401909v-13.260764" fill="none" stroke="#000" stroke-width="0.6"/><path d="M104.776462,93.501185L92.42736,81.152083" fill="none" stroke="#000" stroke-width="0.6"/><path d="M92.580577,81.352529h-17.219878" fill="none" stroke="#000" stroke-width="0.6"/><path d="M75.387195,81.28999l-7.71393-7.71393" fill="none" stroke="#000" stroke-width="0.6"/><path d="M75.130064,81.675686h-6.042579" fill="none" stroke="#000" stroke-width="0.6"/><path d="M75.101898,82.136193L68.798881,88.43921" transform="translate(.000001 0.000001)" fill="none" stroke="#000" stroke-width="0.6"/></svg>
